<svg xmlns="http://www.w3.org/2000/svg" width="430" height="430" style="width:100%;height:100%;transform:translate3d(0,0,0);content-visibility:visible" viewBox="0 0 430 430"><defs><clipPath id="g"><path d="M0 0h430v430H0z"/></clipPath><clipPath id="l"><path d="M0 0h430v430H0z"/></clipPath><clipPath id="j"><path d="M0 0h430v430H0z"/></clipPath><clipPath id="h"><path d="M0 0h430v430H0z"/></clipPath><filter id="a" width="100%" height="100%" x="0%" y="0%" filterUnits="objectBoundingBox"><feComponentTransfer in="SourceGraphic"><feFuncA tableValues="1.0 0.0" type="table"/></feComponentTransfer></filter><filter id="c" width="100%" height="100%" x="0%" y="0%" filterUnits="objectBoundingBox"><feComponentTransfer in="SourceGraphic"><feFuncA tableValues="1.0 0.0" type="table"/></feComponentTransfer></filter><filter id="e" width="100%" height="100%" x="0%" y="0%" filterUnits="objectBoundingBox"><feComponentTransfer in="SourceGraphic"><feFuncA tableValues="1.0 0.0" type="table"/></feComponentTransfer></filter><mask id="m" mask-type="alpha"><g filter="url(#a)"><path fill="#fff" d="M0 0h430v430H0z" opacity="0"/><use xmlns:ns1="http://www.w3.org/1999/xlink" ns1:href="#b"/></g></mask><mask id="k" mask-type="alpha"><g filter="url(#c)"><path fill="#fff" d="M0 0h430v430H0z" opacity="0"/><use xmlns:ns2="http://www.w3.org/1999/xlink" ns2:href="#d"/></g></mask><mask id="i" mask-type="alpha"><g filter="url(#e)"><path fill="#fff" d="M0 0h430v430H0z" opacity="0"/><use xmlns:ns3="http://www.w3.org/1999/xlink" ns3:href="#f"/></g></mask><g id="b" style="display:none"><path/><path fill-opacity="0" stroke-linecap="round" stroke-linejoin="round" class="secondary"/></g><g id="d" style="display:block"><path fill="red" d="M135.8 110.6c-18.891 0-34.2 15.309-34.2 34.2s15.309 34.2 34.2 34.2 34.2-15.309 34.2-34.2-15.309-34.2-34.2-34.2m0-29.403-32.103-24.588-8.784 39.465-40.392 1.8 18.639 35.883-29.79 27.342 37.35 15.507-5.247 40.086 38.574-12.123 21.753 34.083 21.753-34.083 38.574 12.123-5.247-40.086 37.35-15.507-29.79-27.342 18.639-35.883-40.392-1.8-8.784-39.465z"/><path fill-opacity="0" stroke="#07A889" stroke-linecap="round" stroke-linejoin="round" stroke-width="25.2" d="M135.8 110.6c-18.888 0-34.2 15.312-34.2 34.2s15.312 34.2 34.2 34.2 34.2-15.312 34.2-34.2-15.312-34.2-34.2-34.2m0-29.404-32.1-24.588-8.784 39.469-40.394 1.797 18.64 35.881-29.788 27.342 37.343 15.505-5.244 40.093 38.573-12.127 21.754 34.084 21.754-34.084 38.573 12.127-5.244-40.093 37.343-15.505-29.788-27.342 18.64-35.881-40.394-1.797-8.785-39.469z" class="secondary"/></g><g id="f" style="display:none"><path/><path fill-opacity="0" stroke-linecap="round" stroke-linejoin="round" class="secondary"/></g></defs><g clip-path="url(#g)"><g clip-path="url(#h)" style="display:none"><g mask="url(#i)" style="display:none"><path fill="none" class="primary"/></g><path fill="none" class="secondary" style="display:none"/></g><g clip-path="url(#j)" style="display:block"><g mask="url(#k)" style="display:block"><path fill="none" stroke="#121330" stroke-linecap="round" stroke-linejoin="round" stroke-width="12.6" d="m202.463 108.8-78.615 216m24.786-216-78.624 216m240.003-216-78.615 216m24.786-216-78.624 216m187.245-216-78.624 216m78.615-216h-216m195.993 54.505h-216M325.547 216.8h-216m195.993 54.504h-216m196.488 53.775h-216m294.76-216.234 22.463 20.106-70.91 195.92-30.223.1M267.65 364.4H161.426m40.05-2.25v-33.775m27 33.786V328.39" class="primary"/></g><path fill="none" stroke="#07A889" stroke-linecap="round" stroke-linejoin="round" stroke-width="14" d="M0-38c-20.987 0-38 17.013-38 38s17.013 38 38 38S38 20.987 38 0 20.987-38 0-38m0-32.671 35.666-27.32 9.76 43.854L90.31-52.14 69.597-12.272l33.099 30.38-41.493 17.227 5.827 44.548L24.17 66.41 0 104.28l-24.17-37.871-42.86 13.474 5.827-44.548-41.493-17.227 33.099-30.38L-90.31-52.14l44.883-1.997 9.76-43.854z" class="secondary" style="display:block" transform="matrix(.9 0 0 .9 135.8 144.8)"/></g><g fill="none" clip-path="url(#l)" style="display:none"><g mask="url(#m)" style="display:none"><path class="primary"/><path class="primary"/><path class="primary"/><path class="primary"/><path class="primary"/><path class="primary"/></g><path class="secondary" style="display:none"/></g></g></svg>